<svg xmlns="http://www.w3.org/2000/svg" viewBox="0 0 1200 675"><defs><linearGradient id="g" x1="0" y1="0" x2="1" y2="1"><stop stop-color="#e6fbff"/><stop offset="1" stop-color="#e7f0ff"/></linearGradient><linearGradient id="c" x1="0" y1="0" x2="1" y2="1"><stop stop-color="#2a3443"/><stop offset="1" stop-color="#0d1118"/></linearGradient></defs><rect width="1200" height="675" rx="42" fill="url(#g)"/><g transform="translate(420 125)"><path d="M180 0 360 90v220L180 410 0 310V90z" fill="url(#c)" stroke="#5a6c82" stroke-width="10"/><path d="M180 0v410M0 90l180 90 180-90" fill="none" stroke="#52dcff" stroke-width="8" opacity=".85"/><circle cx="180" cy="220" r="52" fill="#7df3ff" opacity=".9"/><circle cx="180" cy="220" r="95" fill="none" stroke="#75dfff" stroke-width="8" opacity=".45"/></g><path d="M245 210c-50 45-60 110-20 165M955 210c50 45 60 110 20 165" fill="none" stroke="#6b9cf6" stroke-width="14" stroke-linecap="round"/><path d="M210 185l45 10-10 45M990 185l-45 10 10 45" fill="none" stroke="#6b9cf6" stroke-width="14" stroke-linecap="round" stroke-linejoin="round"/><text x="70" y="610" font-family="sans-serif" font-size="36" font-weight="700" fill="#2a425b">スマホそのものを使う3Dパズル</text></svg>