<svg xmlns="http://www.w3.org/2000/svg" viewBox="0 0 1200 630" role="img" aria-labelledby="t d"><title id="t">プライバシーと安心</title><desc id="d">鍵と盾のそばで安心して眠る猫のイラスト</desc><defs><linearGradient id="bg" x1="0" x2="1" y1="0" y2="1"><stop stop-color="#f7fbff"/><stop offset=".55" stop-color="#eefaf5"/><stop offset="1" stop-color="#fff3ea"/></linearGradient><filter id="s"><feDropShadow dx="0" dy="14" stdDeviation="18" flood-opacity=".12"/></filter></defs><rect width="1200" height="630" rx="34" fill="url(#bg)"/><g transform="translate(725 100)" filter="url(#s)"><path d="M210 0l170 64v132c0 129-76 211-170 258C116 407 40 325 40 196V64z" fill="#69cdb3"/><path d="M210 42l126 47v107c0 94-53 157-126 198-73-41-126-104-126-198V89z" fill="#fff" opacity=".93"/><rect x="154" y="179" width="112" height="104" rx="18" fill="#5fae9a"/><path d="M176 179v-36c0-47 68-47 68 0v36" fill="none" stroke="#5fae9a" stroke-width="22" stroke-linecap="round"/><circle cx="210" cy="230" r="13" fill="#fff"/></g><g transform="translate(110 190)" filter="url(#s)"><ellipse cx="300" cy="260" rx="270" ry="58" fill="#b98d65" opacity=".18"/><path d="M85 235c18-101 105-161 212-151 113 10 191 74 179 145-11 63-89 102-202 91L157 309c-54-6-81-32-72-74z" fill="#f3efe8"/><path d="M166 118l-36-72 78 34zM290 92l50-62 15 82z" fill="#eee9e2"/><ellipse cx="235" cy="148" rx="88" ry="68" fill="#f6f2ec"/><path d="M183 149c22 16 41 16 59 1M277 149c22 16 41 16 59 1" fill="none" stroke="#353a3e" stroke-width="8" stroke-linecap="round"/><path d="M236 174l15 8-15 10-15-10z" fill="#d77a7a"/><path d="M203 204c15 13 49 13 65 0" fill="none" stroke="#353a3e" stroke-width="7" stroke-linecap="round"/></g><text x="85" y="94" font-family="system-ui,'Noto Sans JP',sans-serif" font-size="50" font-weight="900" fill="#3f554f">情報の扱いは、分かりやすく。</text><text x="86" y="145" font-family="system-ui,'Noto Sans JP',sans-serif" font-size="26" font-weight="700" fill="#6f7a76">広告・Cookie・外部サービス・問い合わせ情報を整理</text></svg>